<svg width="40" height="40" viewBox="0 0 40 40" fill="none" xmlns="http://www.w3.org/2000/svg">
    <rect x="4" y="4" width="32" height="32" rx="8" fill="#20242B"/>
    <rect x="4.5" y="4.5" width="31" height="31" rx="7.5" stroke="#3C4656"/>

    <path d="M13 15.5C13 13.567 14.567 12 16.5 12H23.5C25.433 12 27 13.567 27 15.5V21C27 22.933 25.433 24.5 23.5 24.5H21.25L17.75 28V24.5H16.5C14.567 24.5 13 22.933 13 21V15.5Z"
          fill="#2D3440"/>
    <path d="M13 15.5C13 13.567 14.567 12 16.5 12H23.5C25.433 12 27 13.567 27 15.5V21C27 22.933 25.433 24.5 23.5 24.5H21.25L17.75 28V24.5H16.5C14.567 24.5 13 22.933 13 21V15.5Z"
          stroke="#7AD7FF" stroke-width="1.5" stroke-linejoin="round"/>

    <path d="M16.25 18.55L18.65 20.95L23.75 15.85" stroke="#45E06F" stroke-width="2.2"
          stroke-linecap="round" stroke-linejoin="round"/>

    <circle cx="16" cy="31" r="2" fill="#45E06F"/>
    <circle cx="20" cy="31" r="2" fill="#F2B84B"/>
    <circle cx="24" cy="31" r="2" fill="#FF5B5B"/>
</svg>
